<?xml version="1.0" encoding="utf-8"?>
<!DOCTYPE svg PUBLIC "-//W3C//DTD SVG 1.1//EN" "http://www.w3.org/Graphics/SVG/1.1/DTD/svg11.dtd">
<svg version="1.1" xmlns="http://www.w3.org/2000/svg" xmlns:xlink="http://www.w3.org/1999/xlink" width="32" height="32" viewBox="0 0 32 32">
  <g id="icomoon-ignore">
    <line id="line4144" opacity="" stroke="#449FDB" y2="" x2="" y1="" x1="" stroke-width="1" />
  </g>
  <path class="Icon--loader-dot" id="dot1" d="m 5.333,12 c 1.104,0 2.0466667,0.390667 2.828,1.172 0.7813333,0.781333 1.172,1.724 1.172,2.828 0,1.104 -0.3906667,2.046667 -1.172,2.828 C 7.3796667,19.609333 6.437,20 5.333,20 4.229,20 3.2863333,19.609333 2.505,18.828 1.7236667,18.046667 1.333,17.104 1.333,16 1.333,14.896 1.7236667,13.953333 2.505,13.172 3.2863333,12.390667 4.229,12 5.333,12 Z"/>
  <path class="Icon--loader-dot" id="dot2" d="m 16,12 c 1.104,0 2.046667,0.390667 2.828,1.172 C 19.609333,13.953333 20,14.896 20,16 20,17.104 19.609333,18.046667 18.828,18.828 18.046667,19.609333 17.104,20 16,20 14.896,20 13.953333,19.609333 13.172,18.828 12.390667,18.046667 12,17.104 12,16 12,14.896 12.390667,13.953333 13.172,13.172 13.953333,12.390667 14.896,12 16,12 Z"/>
  <path class="Icon--loader-dot" id="dot3" d="m 26.667,12 c 1.104,0 2.046667,0.390667 2.828,1.172 0.781333,0.781333 1.172,1.724 1.172,2.828 0,1.104 -0.390667,2.046667 -1.172,2.828 C 28.713667,19.609333 27.771,20 26.667,20 25.563,20 24.620333,19.609333 23.839,18.828 23.057667,18.046667 22.667,17.104 22.667,16 c 0,-1.104 0.390667,-2.046667 1.172,-2.828 C 24.620333,12.390667 25.563,12 26.667,12 Z"/>
</svg>
