<?xml version="1.0" encoding="utf-8"?>
<!-- Generator: Adobe Illustrator 18.0.0, SVG Export Plug-In . SVG Version: 6.00 Build 0)  -->
<!DOCTYPE svg PUBLIC "-//W3C//DTD SVG 1.1//EN" "http://www.w3.org/Graphics/SVG/1.1/DTD/svg11.dtd">
<svg version="1.1" id="Layer_1" xmlns="http://www.w3.org/2000/svg" xmlns:xlink="http://www.w3.org/1999/xlink" x="0px" y="0px"
	 viewBox="0 0 600 600" enable-background="new 0 0 600 600" xml:space="preserve">
<path d="M32.5,299.9v0.1c0,147.2,119.3,266.5,266.5,266.5c101.2,0,189.1-56.4,234.3-139.4l-46.2-46.2l-69.6,3.2
	c-26.3,37-69.6,61.2-118.5,61.2c-80.2,0-145.3-65.1-145.3-145.3v-0.1l0.1,0c0-80.1,65-145,145.2-145c50.2,0,94.5,25.5,120.7,64.3
	l37.3-51.8l68.4-8.1C478.3,83.9,394.6,33.5,299,33.5C151.8,33.5,32.5,152.8,32.5,299.9z"/>
</svg>
